<svg height="27" viewBox="0 0 28 27" width="28" xmlns="http://www.w3.org/2000/svg"><g fill="#ffc12d" fill-rule="evenodd"><path d="m14.355 21.221c.324 0 .647.079.942.235l6.01 3.193a.392.392 0 0 0 .427-.032.4.4 0 0 0 .161-.4l-1.148-6.76a2.059 2.059 0 0 1 .583-1.812l4.862-4.788a.402.402 0 0 0 .103-.42.396.396 0 0 0 -.327-.278l-6.72-.986a2.026 2.026 0 0 1 -1.525-1.12l-3.005-6.15a.394.394 0 0 0 -.363-.229.394.394 0 0 0 -.363.228l-3.005 6.152a2.026 2.026 0 0 1 -1.525 1.119l-6.72.986a.396.396 0 0 0 -.326.279.402.402 0 0 0 .102.42l4.862 4.787c.478.47.695 1.147.583 1.811l-1.148 6.761a.4.4 0 0 0 .161.4.392.392 0 0 0 .427.031l6.01-3.192c.295-.156.618-.235.942-.235z" opacity=".8"/><path d="m14.355 21.221c.324 0 .647.079.942.235l6.01 3.193a.392.392 0 0 0 .427-.032.4.4 0 0 0 .161-.4l-1.148-6.76a2.059 2.059 0 0 1 .583-1.812l4.862-4.788a.402.402 0 0 0 .103-.42.396.396 0 0 0 -.327-.278l-6.72-.986a2.026 2.026 0 0 1 -1.525-1.12l-3.005-6.15a.394.394 0 0 0 -.363-.229.394.394 0 0 0 -.363.228l-3.005 6.152a2.026 2.026 0 0 1 -1.525 1.119l-6.72.986a.396.396 0 0 0 -.326.279.402.402 0 0 0 .102.42l4.862 4.787c.478.47.695 1.147.583 1.811l-1.148 6.761a.4.4 0 0 0 .161.4.392.392 0 0 0 .427.031l6.01-3.192c.295-.156.618-.235.942-.235zm7.143 5.113a2.01 2.01 0 0 1 -.944-.237l-6.01-3.192a.401.401 0 0 0 -.377 0l-6.01 3.192a1.996 1.996 0 0 1 -2.133-.156 2.043 2.043 0 0 1 -.806-2l1.148-6.761a.412.412 0 0 0 -.117-.363l-4.862-4.787a2.048 2.048 0 0 1 -.512-2.097c.24-.746.866-1.28 1.634-1.392l6.72-.987a.406.406 0 0 0 .305-.224l3.005-6.15a2.01 2.01 0 0 1 1.816-1.143 2.01 2.01 0 0 1 1.816 1.14l3.005 6.151c.059.121.173.205.305.224l6.72.986a2.018 2.018 0 0 1 1.634 1.393c.24.746.044 1.55-.512 2.097l-4.862 4.788a.412.412 0 0 0 -.117.363l1.148 6.76a2.043 2.043 0 0 1 -1.994 2.394z"/></g></svg>